<svg width="32" height="32" viewBox="0 0 32 32" fill="none" xmlns="http://www.w3.org/2000/svg">
<rect width="32" height="32" rx="16" fill="#F4F5F7"/>
<path d="M16 14C14.916 14 14 14.916 14 16C14 17.084 14.916 18 16 18C17.084 18 18 17.084 18 16C18 14.916 17.084 14 16 14Z" fill="black"/>
<path d="M21.3333 11.3333H19.6093L17.8047 9.52859C17.6797 9.40355 17.5101 9.33329 17.3333 9.33325H14.6667C14.4899 9.33329 14.3203 9.40355 14.1953 9.52859L12.3907 11.3333H10.6667C9.93134 11.3333 9.33334 11.9313 9.33334 12.6666V19.9999C9.33334 20.7353 9.93134 21.3333 10.6667 21.3333H21.3333C22.0687 21.3333 22.6667 20.7353 22.6667 19.9999V12.6666C22.6667 11.9313 22.0687 11.3333 21.3333 11.3333ZM16 19.3333C14.1933 19.3333 12.6667 17.8066 12.6667 15.9999C12.6667 14.1933 14.1933 12.6666 16 12.6666C17.8067 12.6666 19.3333 14.1933 19.3333 15.9999C19.3333 17.8066 17.8067 19.3333 16 19.3333Z" fill="black"/>
</svg>
