<svg width="32" height="32" viewBox="0 0 32 32" fill="none" xmlns="http://www.w3.org/2000/svg">
<rect width="32" height="32" rx="16" fill="#F4F5F7"/>
<path d="M10.6667 15.9999C10.6667 16.1767 10.7369 16.3463 10.8619 16.4713C10.987 16.5963 11.1565 16.6666 11.3333 16.6666C11.5101 16.6666 11.6797 16.5963 11.8047 16.4713C11.9298 16.3463 12 16.1767 12 15.9999C12 15.8231 11.9298 15.6535 11.8047 15.5285C11.6797 15.4035 11.5101 15.3333 11.3333 15.3333C11.1565 15.3333 10.987 15.4035 10.8619 15.5285C10.7369 15.6535 10.6667 15.8231 10.6667 15.9999ZM15.3333 15.9999C15.3333 16.1767 15.4036 16.3463 15.5286 16.4713C15.6536 16.5963 15.8232 16.6666 16 16.6666C16.1768 16.6666 16.3464 16.5963 16.4714 16.4713C16.5964 16.3463 16.6667 16.1767 16.6667 15.9999C16.6667 15.8231 16.5964 15.6535 16.4714 15.5285C16.3464 15.4035 16.1768 15.3333 16 15.3333C15.8232 15.3333 15.6536 15.4035 15.5286 15.5285C15.4036 15.6535 15.3333 15.8231 15.3333 15.9999ZM20 15.9999C20 16.1767 20.0702 16.3463 20.1953 16.4713C20.3203 16.5963 20.4899 16.6666 20.6667 16.6666C20.8435 16.6666 21.0131 16.5963 21.1381 16.4713C21.2631 16.3463 21.3333 16.1767 21.3333 15.9999C21.3333 15.8231 21.2631 15.6535 21.1381 15.5285C21.0131 15.4035 20.8435 15.3333 20.6667 15.3333C20.4899 15.3333 20.3203 15.4035 20.1953 15.5285C20.0702 15.6535 20 15.8231 20 15.9999Z" stroke="black" stroke-width="2" stroke-linecap="round" stroke-linejoin="round"/>
</svg>
